<svg 
 xmlns="http://www.w3.org/2000/svg"
 xmlns:xlink="http://www.w3.org/1999/xlink"
 width="46px" height="43px">
<path fill-rule="evenodd"  fill="rgb(217, 146, 117)"
 d="M22.999,2.82 L30.145,13.714 L43.417,16.916 L34.562,27.306 L35.618,40.917 L22.999,35.708 L10.381,40.917 L11.436,27.306 L2.582,16.916 L15.853,13.714 L22.999,2.82 M22.999,0.82 L22.999,0.82 C22.304,0.82 21.659,0.442 21.295,1.35 L14.581,11.963 L2.113,14.971 C1.437,15.134 0.894,15.636 0.680,16.297 C0.465,16.959 0.609,17.684 1.60,18.213 L9.379,27.975 L8.387,40.763 C8.333,41.456 8.643,42.126 9.205,42.536 C9.552,42.788 9.965,42.917 10.381,42.917 C10.639,42.917 10.898,42.868 11.144,42.766 L22.999,37.872 L34.854,42.766 C35.101,42.868 35.360,42.917 35.618,42.917 C36.34,42.917 36.446,42.788 36.794,42.536 C37.356,42.126 37.666,41.456 37.612,40.763 L36.620,27.975 L44.939,18.213 C45.390,17.684 45.534,16.959 45.319,16.297 C45.104,15.636 44.561,15.134 43.886,14.971 L31.417,11.963 L24.703,1.35 C24.339,0.442 23.694,0.82 22.999,0.82 L22.999,0.82 Z"/>
</svg>